<svg width="18" height="18" viewBox="0 0 18 18" fill="none" xmlns="http://www.w3.org/2000/svg">
<path fill-rule="evenodd" clip-rule="evenodd" d="M3.09078 16.797L8.8172 11.3619L14.2523 17.0883C14.586 17.4399 15.1407 17.4546 15.4923 17.1209L16.7647 15.9132C17.1163 15.5795 17.131 15.0244 16.7973 14.6728L11.3622 8.94637L17.0886 3.51129C17.4398 3.178 17.4546 2.62307 17.1209 2.27147L15.913 0.998849C15.5794 0.647406 15.0243 0.633111 14.6732 0.9664L8.94678 6.40149L3.51169 0.675071C3.17813 0.323627 2.62287 0.309168 2.2713 0.642853L0.998812 1.8506C0.64726 2.18427 0.633131 2.73915 0.966695 3.09059L6.40178 8.81701L0.675365 14.2521C0.323793 14.5858 0.30911 15.1409 0.642673 15.4923L1.85055 16.7649C2.18426 17.1165 2.73921 17.1307 3.09078 16.797Z" fill="#585B62"/>
</svg>
