<svg width="26" height="26" viewBox="0 0 26 26" fill="none" xmlns="http://www.w3.org/2000/svg">
<path d="M24.3762 13.2523C24.3762 12.317 24.2987 11.6345 24.1311 10.9268H13.2333V15.1481H19.6301C19.5012 16.1972 18.8047 17.777 17.2571 18.8386L17.2354 18.98L20.6811 21.5959L20.9198 21.6193C23.1122 19.6349 24.3762 16.7153 24.3762 13.2523Z" fill="#00AA11"/>
<path d="M13.2326 24.3754C16.3664 24.3754 18.9973 23.3642 20.919 21.6201L17.2563 18.8394C16.2762 19.5093 14.9607 19.9769 13.2326 19.9769C10.1631 19.9769 7.55802 17.9927 6.62936 15.25L6.49324 15.2613L2.91038 17.9787L2.86353 18.1064C4.77223 21.8222 8.69286 24.3754 13.2326 24.3754Z" fill="#34A853"/>
<path d="M6.63004 15.2501C6.38501 14.5423 6.2432 13.7839 6.2432 13.0004C6.2432 12.2167 6.38501 11.4584 6.61715 10.7506L6.61066 10.5999L2.98289 7.83887L2.86419 7.8942C2.07752 9.43616 1.62613 11.1677 1.62613 13.0004C1.62613 14.833 2.07752 16.5645 2.86419 18.1064L6.63004 15.2501Z" fill="#FBBC05"/>
<path d="M13.2326 6.0233C15.4122 6.0233 16.8824 6.94594 17.7207 7.71696L20.9965 4.5825C18.9846 2.74987 16.3665 1.625 13.2326 1.625C8.69289 1.625 4.77224 4.17804 2.86353 7.89384L6.61649 10.7503C7.55805 8.00763 10.1632 6.0233 13.2326 6.0233Z" fill="#EB4335"/>
</svg>
